<svg width="57" height="57" viewBox="0 0 57 57" fill="none" xmlns="http://www.w3.org/2000/svg">
<path d="M24.1247 6.12639C25.2727 5.87633 26.4661 5.72857 27.671 5.66037V0C25.9547 0.0681975 24.2838 0.295507 22.6584 0.659227L24.1247 6.12639Z" fill="url(#paint0_linear_32363_8)"/>
<path d="M13.7587 11.4231C14.6453 10.6275 15.5887 9.9 16.6003 9.24076L13.7701 4.33057C12.3379 5.23987 10.9967 6.27419 9.75781 7.41081L13.7587 11.4231Z" fill="url(#paint1_linear_32363_8)"/>
<path d="M18.5892 8.09275C19.6463 7.54717 20.7488 7.0925 21.8968 6.72878L20.4306 1.25024C18.8052 1.76173 17.248 2.40963 15.759 3.1939L18.5892 8.09275Z" fill="url(#paint2_linear_32363_8)"/>
<path d="M9.96233 15.8898C10.6102 14.8896 11.3377 13.9348 12.1447 13.0483L8.14372 9.04736C7.0071 10.2863 5.97278 11.6275 5.06348 13.0596L9.96233 15.8898Z" fill="url(#paint3_linear_32363_8)"/>
<path d="M6.38184 26.9608C6.43867 25.7446 6.5978 24.5625 6.84786 23.4145L1.3807 21.9482C1.01698 23.5736 0.800999 25.2445 0.721436 26.9608H6.38184Z" fill="url(#paint4_linear_32363_8)"/>
<path d="M7.43895 21.1866C7.81404 20.0386 8.2687 18.9361 8.80292 17.879L3.90407 15.0488C3.1198 16.5378 2.47193 18.095 1.96045 19.7203L7.43895 21.1866Z" fill="url(#paint5_linear_32363_8)"/>
<path opacity="0.43" d="M53.7336 15.0488L48.8347 17.879C49.3803 18.9361 49.8349 20.0386 50.1986 21.1866L55.6772 19.7203C55.1657 18.095 54.5178 16.5264 53.7336 15.0488Z" fill="#406EB2"/>
<path opacity="0.43" d="M45.4932 13.0483C46.2888 13.9348 47.0162 14.8782 47.6755 15.8898L52.5857 13.0596C51.6764 11.6275 50.6421 10.2863 49.5054 9.04736L45.4932 13.0483Z" fill="#406EB2"/>
<path opacity="0.43" d="M35.741 6.72878C36.889 7.10387 37.9915 7.55853 39.0485 8.09275L41.8788 3.1939C40.3898 2.40963 38.8326 1.76173 37.2072 1.25024L35.741 6.72878Z" fill="#406EB2"/>
<path opacity="0.43" d="M41.0376 9.24065C42.0378 9.88852 42.9926 10.616 43.8792 11.423L47.8801 7.42208C46.6412 6.28545 45.3 5.2511 43.8678 4.3418L41.0376 9.24065Z" fill="#406EB2"/>
<path opacity="0.43" d="M29.9668 5.66037C31.183 5.7172 32.3651 5.87633 33.5131 6.12639L34.9793 0.659227C33.3539 0.295507 31.6831 0.0795637 29.9668 0V5.66037Z" fill="#406EB2"/>
<path d="M6.83659 32.8029C6.58654 31.6549 6.43877 30.4614 6.37057 29.2566H0.710205C0.778403 30.9729 1.00571 32.6437 1.36943 34.2691L6.83659 32.8029Z" fill="url(#paint6_linear_32363_8)"/>
<path d="M8.80292 38.3269C8.25734 37.2698 7.80267 36.1673 7.43895 35.0193L1.96045 36.4855C2.47193 38.1109 3.1198 39.6681 3.90407 41.1571L8.80292 38.3269Z" fill="url(#paint7_linear_32363_8)"/>
<path d="M43.8677 44.783C42.9811 45.5786 42.0377 46.306 41.0261 46.9653L43.8563 51.8755C45.2885 50.9662 46.6297 49.9319 47.8686 48.7952L43.8677 44.783Z" fill="url(#paint8_linear_32363_8)"/>
<path d="M50.1986 35.0308C49.8236 36.1788 49.3689 37.2813 48.8347 38.3383L53.7336 41.1686C54.5178 39.6796 55.1657 38.1224 55.6772 36.497L50.1986 35.0308Z" fill="url(#paint9_linear_32363_8)"/>
<path d="M39.0485 48.1133C37.9915 48.6589 36.889 49.1135 35.741 49.4772L37.2072 54.9558C38.8326 54.4443 40.3898 53.7964 41.8788 53.0121L39.0485 48.1133Z" fill="url(#paint10_linear_32363_8)"/>
<path opacity="0.43" d="M50.79 23.403C51.0401 24.551 51.1879 25.7445 51.2561 26.9493H56.9164C56.8482 25.233 56.6209 23.5621 56.2572 21.9368L50.79 23.403Z" fill="#406EB2"/>
<path d="M51.2561 29.2566C51.1992 30.4728 51.0401 31.6549 50.79 32.8029L56.2572 34.2691C56.6209 32.6437 56.8369 30.9729 56.9164 29.2566H51.2561Z" fill="url(#paint11_linear_32363_8)"/>
<path d="M47.6755 40.3274C47.0276 41.3276 46.3002 42.2824 45.4932 43.169L49.4941 47.1699C50.6307 45.931 51.665 44.5898 52.5743 43.1576L47.6755 40.3274Z" fill="url(#paint12_linear_32363_8)"/>
<path d="M16.6003 46.9653C15.6001 46.3174 14.6453 45.59 13.7587 44.783L9.75781 48.7839C10.9967 49.9205 12.3379 50.9548 13.7701 51.8641L16.6003 46.9653Z" fill="url(#paint13_linear_32363_8)"/>
<path d="M12.1333 43.1575C11.3377 42.2709 10.6102 41.3275 9.951 40.3159L5.04077 43.1461C5.95007 44.5782 6.98439 45.9195 8.12102 47.1584L12.1333 43.1575Z" fill="url(#paint14_linear_32363_8)"/>
<path d="M27.671 50.5456C26.4548 50.4888 25.2727 50.3296 24.1247 50.0796L22.6584 55.5468C24.2838 55.9105 25.9547 56.1264 27.671 56.206V50.5456Z" fill="url(#paint15_linear_32363_8)"/>
<path d="M21.8968 49.4884C20.7488 49.1134 19.6463 48.6587 18.5892 48.1245L15.759 53.0234C17.248 53.8076 18.8052 54.4555 20.4306 54.967L21.8968 49.4884Z" fill="url(#paint16_linear_32363_8)"/>
<path d="M33.5131 50.0796C32.3651 50.3296 31.1716 50.4774 29.9668 50.5456V56.206C31.6831 56.1378 33.3539 55.9105 34.9793 55.5468L33.5131 50.0796Z" fill="url(#paint17_linear_32363_8)"/>
<path d="M23.1691 27.1657L19.2293 35.9993H17.9617L21.8885 27.4793H16.7399V26.4862H23.1691V27.1657ZM25.0965 31.2297L25.58 26.4862H30.4542V27.6035H26.6058L26.3183 30.1973C26.7844 29.9229 27.3136 29.7857 27.906 29.7857C28.7728 29.7857 29.461 30.0732 29.9707 30.6482C30.4803 31.2188 30.7351 31.9919 30.7351 32.9676C30.7351 33.9477 30.4694 34.7208 29.938 35.2871C29.4109 35.849 28.6726 36.1299 27.7231 36.1299C26.8824 36.1299 26.1964 35.8969 25.665 35.4308C25.1335 34.9648 24.8308 34.3201 24.7568 33.4969H25.9002C25.9742 34.0413 26.168 34.453 26.4817 34.7317C26.7953 35.0061 27.2091 35.1434 27.7231 35.1434C28.285 35.1434 28.7249 34.9517 29.0429 34.5684C29.3652 34.1851 29.5264 33.6558 29.5264 32.9807C29.5264 32.3447 29.3521 31.8351 29.0037 31.4518C28.6596 31.0641 28.2 30.8703 27.6251 30.8703C27.098 30.8703 26.6842 30.9857 26.3837 31.2166L26.0635 31.4779L25.0965 31.2297ZM31.9504 28.3156C31.9504 27.745 32.1311 27.2746 32.4927 26.9043C32.8586 26.5341 33.3268 26.349 33.8974 26.349C34.4767 26.349 34.945 26.5363 35.3022 26.9109C35.6637 27.2811 35.8445 27.7624 35.8445 28.3548V28.8187C35.8445 29.3937 35.6615 29.8641 35.2956 30.23C34.9341 30.5915 34.4724 30.7723 33.9105 30.7723C33.3442 30.7723 32.876 30.5915 32.5057 30.23C32.1355 29.8641 31.9504 29.3784 31.9504 28.773V28.3156ZM32.852 28.8187C32.852 29.1585 32.9479 29.4394 33.1395 29.6616C33.3312 29.8794 33.5882 29.9883 33.9105 29.9883C34.2198 29.9883 34.468 29.8815 34.6553 29.6681C34.847 29.4547 34.9428 29.1628 34.9428 28.7926V28.3156C34.9428 27.9759 34.8492 27.6949 34.6619 27.4728C34.4746 27.2506 34.2198 27.1396 33.8974 27.1396C33.5751 27.1396 33.3203 27.2506 33.133 27.4728C32.9457 27.6949 32.852 27.9846 32.852 28.3418V28.8187ZM36.5828 33.6667C36.5828 33.0961 36.7635 32.6279 37.1251 32.262C37.491 31.8917 37.9592 31.7066 38.5298 31.7066C39.1004 31.7066 39.5687 31.8896 39.9346 32.2555C40.3005 32.6213 40.4834 33.107 40.4834 33.7125V34.1764C40.4834 34.747 40.3005 35.2174 39.9346 35.5876C39.573 35.9535 39.1091 36.1365 38.5429 36.1365C37.9766 36.1365 37.5084 35.9557 37.1381 35.5942C36.7679 35.2283 36.5828 34.7426 36.5828 34.1372V33.6667ZM37.4844 34.1764C37.4844 34.5205 37.5803 34.8036 37.7719 35.0257C37.9636 35.2435 38.2206 35.3524 38.5429 35.3524C38.8565 35.3524 39.107 35.2457 39.2943 35.0323C39.4816 34.8145 39.5752 34.5205 39.5752 34.1502V33.6667C39.5752 33.3226 39.4794 33.0417 39.2877 32.8239C39.1004 32.6061 38.8478 32.4972 38.5298 32.4972C38.2206 32.4972 37.9679 32.6061 37.7719 32.8239C37.5803 33.0373 37.4844 33.327 37.4844 33.6929V34.1764ZM34.1849 35.2806L33.4989 34.8493L38.1443 27.414L38.8304 27.8452L34.1849 35.2806Z" fill="#F5F7F6"/>
<path d="M17.471 21.8323V17.3477H18.7369C19.127 17.3477 19.472 17.4339 19.7718 17.6064C20.0716 17.7789 20.3026 18.0242 20.4648 18.3425C20.6291 18.6608 20.7123 19.0263 20.7143 19.439V19.7255C20.7143 20.1485 20.6322 20.5191 20.4679 20.8374C20.3057 21.1557 20.0726 21.4 19.7687 21.5705C19.4669 21.7409 19.1147 21.8282 18.7123 21.8323H17.471ZM18.0624 17.8343V21.3487H18.6845C19.1404 21.3487 19.4946 21.207 19.7472 20.9236C20.0018 20.6403 20.1291 20.2368 20.1291 19.7132V19.4514C20.1291 18.9421 20.009 18.5468 19.7687 18.2655C19.5305 17.9822 19.1917 17.8384 18.7523 17.8343H18.0624ZM24.0193 20.6618H22.1404L21.7184 21.8323H21.1086L22.8211 17.3477H23.3386L25.0542 21.8323H24.4474L24.0193 20.6618ZM22.3191 20.1752H23.8437L23.0798 18.0776L22.3191 20.1752ZM28.356 17.8343H26.9146V21.8323H26.3263V17.8343H24.8879V17.3477H28.356V17.8343ZM31.2513 20.6618H29.3725L28.9505 21.8323H28.3406L30.0532 17.3477H30.5706L32.2862 21.8323H31.6795L31.2513 20.6618ZM29.5511 20.1752H31.0758L30.3119 18.0776L29.5511 20.1752ZM37.1189 19.9195C37.1189 20.5869 37.005 21.0828 36.777 21.4072C36.5491 21.7317 36.1928 21.8939 35.7082 21.8939C35.2298 21.8939 34.8756 21.7358 34.6456 21.4195C34.4156 21.1013 34.2965 20.6269 34.2883 19.9965V19.2358C34.2883 18.5766 34.4023 18.0869 34.6302 17.7665C34.8581 17.4462 35.2154 17.2861 35.7021 17.2861C36.1846 17.2861 36.5399 17.4411 36.7678 17.7511C36.9957 18.0592 37.1128 18.5355 37.1189 19.1803V19.9195ZM36.5491 19.1403C36.5491 18.6577 36.4813 18.3066 36.3458 18.0869C36.2103 17.8651 35.9957 17.7542 35.7021 17.7542C35.4105 17.7542 35.198 17.8641 35.0645 18.0838C34.931 18.3035 34.8622 18.6413 34.8581 19.0971V20.0089C34.8581 20.4935 34.9279 20.8518 35.0676 21.0838C35.2093 21.3138 35.4228 21.4288 35.7082 21.4288C35.9896 21.4288 36.198 21.32 36.3335 21.1023C36.4711 20.8846 36.5429 20.5417 36.5491 20.0735V19.1403ZM39.7216 21.8323H39.1487V18.0345L37.9998 18.4565V17.939L39.6323 17.3261H39.7216V21.8323Z" fill="#F5F7F6"/>
<defs>
<linearGradient id="paint0_linear_32363_8" x1="-78.6104" y1="3.06638" x2="192.193" y2="3.06638" gradientUnits="userSpaceOnUse">
<stop offset="0.0101" stop-color="#F408AB"/>
<stop offset="1" stop-color="#27B7FF"/>
</linearGradient>
<linearGradient id="paint1_linear_32363_8" x1="-78.6099" y1="7.88251" x2="192.193" y2="7.88251" gradientUnits="userSpaceOnUse">
<stop offset="0.0101" stop-color="#F408AB"/>
<stop offset="1" stop-color="#27B7FF"/>
</linearGradient>
<linearGradient id="paint2_linear_32363_8" x1="-78.6099" y1="4.67127" x2="192.192" y2="4.67127" gradientUnits="userSpaceOnUse">
<stop offset="0.0101" stop-color="#F408AB"/>
<stop offset="1" stop-color="#27B7FF"/>
</linearGradient>
<linearGradient id="paint3_linear_32363_8" x1="-78.6085" y1="12.4679" x2="192.189" y2="12.4679" gradientUnits="userSpaceOnUse">
<stop offset="0.0101" stop-color="#F408AB"/>
<stop offset="1" stop-color="#27B7FF"/>
</linearGradient>
<linearGradient id="paint4_linear_32363_8" x1="-78.6087" y1="24.4485" x2="192.19" y2="24.4485" gradientUnits="userSpaceOnUse">
<stop offset="0.0101" stop-color="#F408AB"/>
<stop offset="1" stop-color="#27B7FF"/>
</linearGradient>
<linearGradient id="paint5_linear_32363_8" x1="-78.6099" y1="18.1166" x2="192.194" y2="18.1166" gradientUnits="userSpaceOnUse">
<stop offset="0.0101" stop-color="#F408AB"/>
<stop offset="1" stop-color="#27B7FF"/>
</linearGradient>
<linearGradient id="paint6_linear_32363_8" x1="-78.6081" y1="31.7625" x2="192.189" y2="31.7625" gradientUnits="userSpaceOnUse">
<stop offset="0.0101" stop-color="#F408AB"/>
<stop offset="1" stop-color="#27B7FF"/>
</linearGradient>
<linearGradient id="paint7_linear_32363_8" x1="-78.6099" y1="38.0943" x2="192.194" y2="38.0943" gradientUnits="userSpaceOnUse">
<stop offset="0.0101" stop-color="#F408AB"/>
<stop offset="1" stop-color="#27B7FF"/>
</linearGradient>
<linearGradient id="paint8_linear_32363_8" x1="-78.608" y1="48.3285" x2="192.19" y2="48.3285" gradientUnits="userSpaceOnUse">
<stop offset="0.0101" stop-color="#F408AB"/>
<stop offset="1" stop-color="#27B7FF"/>
</linearGradient>
<linearGradient id="paint9_linear_32363_8" x1="-78.6087" y1="38.0944" x2="192.19" y2="38.0944" gradientUnits="userSpaceOnUse">
<stop offset="0.0101" stop-color="#F408AB"/>
<stop offset="1" stop-color="#27B7FF"/>
</linearGradient>
<linearGradient id="paint10_linear_32363_8" x1="-78.6107" y1="51.5397" x2="192.193" y2="51.5397" gradientUnits="userSpaceOnUse">
<stop offset="0.0101" stop-color="#F408AB"/>
<stop offset="1" stop-color="#27B7FF"/>
</linearGradient>
<linearGradient id="paint11_linear_32363_8" x1="-78.6092" y1="31.7625" x2="192.192" y2="31.7625" gradientUnits="userSpaceOnUse">
<stop offset="0.0101" stop-color="#F408AB"/>
<stop offset="1" stop-color="#27B7FF"/>
</linearGradient>
<linearGradient id="paint12_linear_32363_8" x1="-78.6101" y1="43.7431" x2="192.192" y2="43.7431" gradientUnits="userSpaceOnUse">
<stop offset="0.0101" stop-color="#F408AB"/>
<stop offset="1" stop-color="#27B7FF"/>
</linearGradient>
<linearGradient id="paint13_linear_32363_8" x1="-78.6099" y1="48.3285" x2="192.193" y2="48.3285" gradientUnits="userSpaceOnUse">
<stop offset="0.0101" stop-color="#F408AB"/>
<stop offset="1" stop-color="#27B7FF"/>
</linearGradient>
<linearGradient id="paint14_linear_32363_8" x1="-78.6082" y1="43.7429" x2="192.189" y2="43.7429" gradientUnits="userSpaceOnUse">
<stop offset="0.0101" stop-color="#F408AB"/>
<stop offset="1" stop-color="#27B7FF"/>
</linearGradient>
<linearGradient id="paint15_linear_32363_8" x1="-78.6104" y1="53.1446" x2="192.193" y2="53.1446" gradientUnits="userSpaceOnUse">
<stop offset="0.0101" stop-color="#F408AB"/>
<stop offset="1" stop-color="#27B7FF"/>
</linearGradient>
<linearGradient id="paint16_linear_32363_8" x1="-78.6099" y1="51.5396" x2="192.192" y2="51.5396" gradientUnits="userSpaceOnUse">
<stop offset="0.0101" stop-color="#F408AB"/>
<stop offset="1" stop-color="#27B7FF"/>
</linearGradient>
<linearGradient id="paint17_linear_32363_8" x1="-78.6104" y1="53.1446" x2="192.193" y2="53.1446" gradientUnits="userSpaceOnUse">
<stop offset="0.0101" stop-color="#F408AB"/>
<stop offset="1" stop-color="#27B7FF"/>
</linearGradient>
</defs>
</svg>
