<svg width="57" height="57" viewBox="0 0 57 57" fill="none" xmlns="http://www.w3.org/2000/svg">
<path d="M24.1201 6.12639C25.2681 5.87633 26.4615 5.72857 27.6663 5.66037V0C25.95 0.0681975 24.2792 0.295507 22.6538 0.659227L24.1201 6.12639Z" fill="url(#paint0_linear_32363_9)"/>
<path d="M13.7653 11.4231C14.6519 10.6275 15.5953 9.9 16.6069 9.24076L13.7767 4.33057C12.3445 5.23987 11.0033 6.27419 9.7644 7.41081L13.7653 11.4231Z" fill="url(#paint1_linear_32363_9)"/>
<path d="M18.5846 8.09275C19.6417 7.54717 20.7442 7.0925 21.8922 6.72878L20.4259 1.25024C18.8006 1.76173 17.2434 2.40963 15.7544 3.1939L18.5846 8.09275Z" fill="url(#paint2_linear_32363_9)"/>
<path d="M9.95769 15.8898C10.6056 14.8896 11.333 13.9348 12.14 13.0483L8.13912 9.04736C7.00249 10.2863 5.96814 11.6275 5.05884 13.0596L9.95769 15.8898Z" fill="url(#paint3_linear_32363_9)"/>
<path d="M6.37741 26.9608C6.43424 25.7446 6.59337 24.5625 6.84343 23.4145L1.37627 21.9482C1.01255 23.5736 0.796605 25.2445 0.717041 26.9608H6.37741Z" fill="url(#paint4_linear_32363_9)"/>
<path d="M7.43432 21.1866C7.8094 20.0386 8.26407 18.9361 8.79828 17.879L3.89943 15.0488C3.11516 16.5378 2.46729 18.095 1.95581 19.7203L7.43432 21.1866Z" fill="url(#paint5_linear_32363_9)"/>
<path opacity="0.43" d="M53.7292 15.0488L48.8303 17.879C49.3759 18.9361 49.8306 20.0386 50.1943 21.1866L55.6728 19.7203C55.1613 18.095 54.5134 16.5264 53.7292 15.0488Z" fill="#406EB2"/>
<path opacity="0.43" d="M45.4888 13.0483C46.2844 13.9348 47.0119 14.8782 47.6711 15.8898L52.5813 13.0596C51.672 11.6275 50.6377 10.2863 49.5011 9.04736L45.4888 13.0483Z" fill="#406EB2"/>
<path opacity="0.43" d="M35.7366 6.72878C36.8846 7.10387 37.9871 7.55853 39.0442 8.09275L41.8743 3.1939C40.3854 2.40963 38.8282 1.76173 37.2028 1.25024L35.7366 6.72878Z" fill="#406EB2"/>
<path opacity="0.43" d="M41.0332 9.24065C42.0334 9.88852 42.9882 10.616 43.8748 11.423L47.8757 7.42208C46.6368 6.28545 45.2955 5.2511 43.8634 4.3418L41.0332 9.24065Z" fill="#406EB2"/>
<path opacity="0.43" d="M29.9624 5.66037C31.1786 5.7172 32.3607 5.87633 33.5087 6.12639L34.9749 0.659227C33.3495 0.295507 31.6787 0.0795637 29.9624 0V5.66037Z" fill="#406EB2"/>
<path d="M6.83196 32.8029C6.5819 31.6549 6.43417 30.4614 6.36597 29.2566H0.705566C0.773764 30.9729 1.00107 32.6437 1.36479 34.2691L6.83196 32.8029Z" fill="url(#paint6_linear_32363_9)"/>
<path d="M8.79828 38.3269C8.2527 37.2698 7.79804 36.1673 7.43432 35.0193L1.95581 36.4855C2.46729 38.1109 3.11516 39.6681 3.89943 41.1571L8.79828 38.3269Z" fill="url(#paint7_linear_32363_9)"/>
<path opacity="0.43" d="M43.8633 44.783C42.9767 45.5786 42.0333 46.306 41.0217 46.9653L43.8519 51.8755C45.2841 50.9662 46.6253 49.9319 47.8642 48.7952L43.8633 44.783Z" fill="#406EB2"/>
<path opacity="0.43" d="M50.1943 35.0308C49.8192 36.1788 49.3645 37.2813 48.8303 38.3383L53.7292 41.1686C54.5134 39.6796 55.1613 38.1224 55.6728 36.497L50.1943 35.0308Z" fill="#406EB2"/>
<path opacity="0.43" d="M39.0442 48.1133C37.9871 48.6589 36.8846 49.1135 35.7366 49.4772L37.2028 54.9558C38.8282 54.4443 40.3854 53.7964 41.8743 53.0121L39.0442 48.1133Z" fill="#406EB2"/>
<path opacity="0.43" d="M50.7854 23.403C51.0355 24.551 51.1832 25.7445 51.2514 26.9493H56.9118C56.8436 25.233 56.6163 23.5621 56.2526 21.9368L50.7854 23.403Z" fill="#406EB2"/>
<path opacity="0.43" d="M51.2514 29.2566C51.1946 30.4728 51.0355 31.6549 50.7854 32.8029L56.2526 34.2691C56.6163 32.6437 56.8322 30.9729 56.9118 29.2566H51.2514Z" fill="#406EB2"/>
<path opacity="0.43" d="M47.6711 40.3274C47.0232 41.3276 46.2958 42.2824 45.4888 43.169L49.4897 47.1699C50.6263 45.931 51.6607 44.5898 52.57 43.1576L47.6711 40.3274Z" fill="#406EB2"/>
<path d="M16.5957 46.9653C15.5954 46.3174 14.6407 45.59 13.7541 44.783L9.75317 48.7839C10.9921 49.9205 12.3333 50.9548 13.7655 51.8641L16.5957 46.9653Z" fill="url(#paint8_linear_32363_9)"/>
<path d="M12.1287 43.1575C11.333 42.2709 10.6056 41.3275 9.94636 40.3159L5.03613 43.1461C5.94543 44.5782 6.97975 45.9195 8.11638 47.1584L12.1287 43.1575Z" fill="url(#paint9_linear_32363_9)"/>
<path d="M27.6663 50.5456C26.4501 50.4888 25.2681 50.3296 24.1201 50.0796L22.6538 55.5468C24.2792 55.9105 25.95 56.1264 27.6663 56.206V50.5456Z" fill="url(#paint10_linear_32363_9)"/>
<path d="M21.8922 49.4884C20.7442 49.1134 19.6417 48.6587 18.5846 48.1245L15.7544 53.0234C17.2434 53.8076 18.8006 54.4555 20.4259 54.967L21.8922 49.4884Z" fill="url(#paint11_linear_32363_9)"/>
<path opacity="0.43" d="M33.5087 50.0796C32.3607 50.3296 31.1672 50.4774 29.9624 50.5456V56.206C31.6787 56.1378 33.3495 55.9105 34.9749 55.5468L33.5087 50.0796Z" fill="#406EB2"/>
<path d="M17.2695 31.2297L17.753 26.4862H22.6272V27.6035H18.7788L18.4913 30.1973C18.9574 29.9229 19.4866 29.7857 20.079 29.7857C20.9458 29.7857 21.634 30.0732 22.1437 30.6482C22.6533 31.2188 22.9081 31.9919 22.9081 32.9676C22.9081 33.9477 22.6424 34.7208 22.111 35.2871C21.584 35.849 20.8456 36.1299 19.8961 36.1299C19.0554 36.1299 18.3694 35.8969 17.838 35.4308C17.3066 34.9648 17.0038 34.3201 16.9298 33.4969H18.0732C18.1472 34.0413 18.3411 34.453 18.6547 34.7317C18.9683 35.0061 19.3821 35.1434 19.8961 35.1434C20.458 35.1434 20.8979 34.9517 21.2159 34.5684C21.5382 34.1851 21.6994 33.6558 21.6994 32.9807C21.6994 32.3447 21.5251 31.8351 21.1767 31.4518C20.8326 31.0641 20.373 30.8703 19.7981 30.8703C19.271 30.8703 18.8572 30.9857 18.5567 31.2166L18.2365 31.4779L17.2695 31.2297ZM30.1932 31.9418C30.1932 33.3575 29.9515 34.4094 29.468 35.0976C28.9845 35.7858 28.2287 36.1299 27.2008 36.1299C26.1859 36.1299 25.4345 35.7945 24.9466 35.1238C24.4588 34.4486 24.2061 33.4424 24.1887 32.1052V30.4914C24.1887 29.0931 24.4305 28.0543 24.914 27.3748C25.3975 26.6953 26.1554 26.3555 27.1877 26.3555C28.2113 26.3555 28.9649 26.6844 29.4484 27.3421C29.9318 27.9955 30.1801 29.006 30.1932 30.3737V31.9418ZM28.9845 30.2888C28.9845 29.2652 28.8407 28.5204 28.5532 28.0543C28.2658 27.5839 27.8106 27.3486 27.1877 27.3486C26.5692 27.3486 26.1183 27.5817 25.8352 28.0477C25.5521 28.5138 25.4062 29.2303 25.3975 30.1973V32.1313C25.3975 33.1593 25.5456 33.9194 25.8417 34.4116C26.1423 34.8994 26.5953 35.1434 27.2008 35.1434C27.7975 35.1434 28.2396 34.9125 28.5271 34.4508C28.8189 33.9891 28.9714 33.2616 28.9845 32.2685V30.2888ZM31.6371 28.3156C31.6371 27.745 31.8179 27.2746 32.1794 26.9043C32.5453 26.5341 33.0136 26.349 33.5842 26.349C34.1635 26.349 34.6318 26.5363 34.9889 26.9109C35.3505 27.2811 35.5312 27.7624 35.5312 28.3548V28.8187C35.5312 29.3937 35.3483 29.8641 34.9824 30.23C34.6209 30.5915 34.1592 30.7723 33.5973 30.7723C33.031 30.7723 32.5628 30.5915 32.1925 30.23C31.8223 29.8641 31.6371 29.3784 31.6371 28.773V28.3156ZM32.5388 28.8187C32.5388 29.1585 32.6346 29.4394 32.8263 29.6616C33.0179 29.8794 33.2749 29.9883 33.5973 29.9883C33.9065 29.9883 34.1548 29.8815 34.3421 29.6681C34.5338 29.4547 34.6296 29.1628 34.6296 28.7926V28.3156C34.6296 27.9759 34.5359 27.6949 34.3486 27.4728C34.1613 27.2506 33.9065 27.1396 33.5842 27.1396C33.2619 27.1396 33.007 27.2506 32.8197 27.4728C32.6324 27.6949 32.5388 27.9846 32.5388 28.3418V28.8187ZM36.2695 33.6667C36.2695 33.0961 36.4503 32.6279 36.8118 32.262C37.1777 31.8917 37.646 31.7066 38.2166 31.7066C38.7872 31.7066 39.2554 31.8896 39.6213 32.2555C39.9872 32.6213 40.1702 33.107 40.1702 33.7125V34.1764C40.1702 34.747 39.9872 35.2174 39.6213 35.5876C39.2598 35.9535 38.7959 36.1365 38.2297 36.1365C37.6634 36.1365 37.1952 35.9557 36.8249 35.5942C36.4547 35.2283 36.2695 34.7426 36.2695 34.1372V33.6667ZM37.1712 34.1764C37.1712 34.5205 37.267 34.8036 37.4587 35.0257C37.6503 35.2435 37.9073 35.3524 38.2297 35.3524C38.5433 35.3524 38.7937 35.2457 38.981 35.0323C39.1683 34.8145 39.262 34.5205 39.262 34.1502V33.6667C39.262 33.3226 39.1662 33.0417 38.9745 32.8239C38.7872 32.6061 38.5346 32.4972 38.2166 32.4972C37.9073 32.4972 37.6547 32.6061 37.4587 32.8239C37.267 33.0373 37.1712 33.327 37.1712 33.6929V34.1764ZM33.8717 35.2806L33.1856 34.8493L37.8311 27.414L38.5171 27.8452L33.8717 35.2806Z" fill="#F5F7F6"/>
<path d="M17.158 21.8323V17.3477H18.4239C18.8141 17.3477 19.159 17.4339 19.4588 17.6064C19.7586 17.7789 19.9896 18.0242 20.1518 18.3425C20.3161 18.6608 20.3993 19.0263 20.4013 19.439V19.7255C20.4013 20.1485 20.3192 20.5191 20.1549 20.8374C19.9927 21.1557 19.7596 21.4 19.4557 21.5705C19.1539 21.7409 18.8017 21.8282 18.3993 21.8323H17.158ZM17.7494 17.8343V21.3487H18.3715C18.8274 21.3487 19.1816 21.207 19.4342 20.9236C19.6888 20.6403 19.8161 20.2368 19.8161 19.7132V19.4514C19.8161 18.9421 19.696 18.5468 19.4557 18.2655C19.2175 17.9822 18.8787 17.8384 18.4393 17.8343H17.7494ZM23.7063 20.6618H21.8274L21.4054 21.8323H20.7956L22.5081 17.3477H23.0256L24.7412 21.8323H24.1344L23.7063 20.6618ZM22.0061 20.1752H23.5307L22.7668 18.0776L22.0061 20.1752ZM28.0431 17.8343H26.6016V21.8323H26.0133V17.8343H24.5749V17.3477H28.0431V17.8343ZM30.9383 20.6618H29.0595L28.6375 21.8323H28.0277L29.7402 17.3477H30.2576L31.9733 21.8323H31.3665L30.9383 20.6618ZM29.2381 20.1752H30.7628L29.9989 18.0776L29.2381 20.1752ZM36.8059 19.9195C36.8059 20.5869 36.692 21.0828 36.464 21.4072C36.2361 21.7317 35.8798 21.8939 35.3952 21.8939C34.9168 21.8939 34.5626 21.7358 34.3326 21.4195C34.1026 21.1013 33.9835 20.6269 33.9753 19.9965V19.2358C33.9753 18.5766 34.0893 18.0869 34.3172 17.7665C34.5451 17.4462 34.9024 17.2861 35.3891 17.2861C35.8716 17.2861 36.2269 17.4411 36.4548 17.7511C36.6827 18.0592 36.7998 18.5355 36.8059 19.1803V19.9195ZM36.2361 19.1403C36.2361 18.6577 36.1684 18.3066 36.0328 18.0869C35.8973 17.8651 35.6827 17.7542 35.3891 17.7542C35.0975 17.7542 34.885 17.8641 34.7515 18.0838C34.618 18.3035 34.5492 18.6413 34.5451 19.0971V20.0089C34.5451 20.4935 34.615 20.8518 34.7546 21.0838C34.8963 21.3138 35.1098 21.4288 35.3952 21.4288C35.6766 21.4288 35.885 21.32 36.0205 21.1023C36.1581 20.8846 36.23 20.5417 36.2361 20.0735V19.1403ZM39.4086 21.8323H38.8357V18.0345L37.6868 18.4565V17.939L39.3193 17.3261H39.4086V21.8323Z" fill="#F5F7F6"/>
<defs>
<linearGradient id="paint0_linear_32363_9" x1="-156.607" y1="3.06637" x2="114.191" y2="3.06637" gradientUnits="userSpaceOnUse">
<stop offset="0.0101" stop-color="#F408AB"/>
<stop offset="1" stop-color="#27B7FF"/>
</linearGradient>
<linearGradient id="paint1_linear_32363_9" x1="-156.607" y1="7.88252" x2="114.191" y2="7.88252" gradientUnits="userSpaceOnUse">
<stop offset="0.0101" stop-color="#F408AB"/>
<stop offset="1" stop-color="#27B7FF"/>
</linearGradient>
<linearGradient id="paint2_linear_32363_9" x1="-156.607" y1="4.67127" x2="114.19" y2="4.67127" gradientUnits="userSpaceOnUse">
<stop offset="0.0101" stop-color="#F408AB"/>
<stop offset="1" stop-color="#27B7FF"/>
</linearGradient>
<linearGradient id="paint3_linear_32363_9" x1="-156.61" y1="12.4679" x2="114.192" y2="12.4679" gradientUnits="userSpaceOnUse">
<stop offset="0.0101" stop-color="#F408AB"/>
<stop offset="1" stop-color="#27B7FF"/>
</linearGradient>
<linearGradient id="paint4_linear_32363_9" x1="-156.61" y1="24.4485" x2="114.192" y2="24.4485" gradientUnits="userSpaceOnUse">
<stop offset="0.0101" stop-color="#F408AB"/>
<stop offset="1" stop-color="#27B7FF"/>
</linearGradient>
<linearGradient id="paint5_linear_32363_9" x1="-156.608" y1="18.1166" x2="114.191" y2="18.1166" gradientUnits="userSpaceOnUse">
<stop offset="0.0101" stop-color="#F408AB"/>
<stop offset="1" stop-color="#27B7FF"/>
</linearGradient>
<linearGradient id="paint6_linear_32363_9" x1="-156.61" y1="31.7625" x2="114.192" y2="31.7625" gradientUnits="userSpaceOnUse">
<stop offset="0.0101" stop-color="#F408AB"/>
<stop offset="1" stop-color="#27B7FF"/>
</linearGradient>
<linearGradient id="paint7_linear_32363_9" x1="-156.608" y1="38.0943" x2="114.191" y2="38.0943" gradientUnits="userSpaceOnUse">
<stop offset="0.0101" stop-color="#F408AB"/>
<stop offset="1" stop-color="#27B7FF"/>
</linearGradient>
<linearGradient id="paint8_linear_32363_9" x1="-156.608" y1="48.3285" x2="114.191" y2="48.3285" gradientUnits="userSpaceOnUse">
<stop offset="0.0101" stop-color="#F408AB"/>
<stop offset="1" stop-color="#27B7FF"/>
</linearGradient>
<linearGradient id="paint9_linear_32363_9" x1="-156.609" y1="43.7429" x2="114.192" y2="43.7429" gradientUnits="userSpaceOnUse">
<stop offset="0.0101" stop-color="#F408AB"/>
<stop offset="1" stop-color="#27B7FF"/>
</linearGradient>
<linearGradient id="paint10_linear_32363_9" x1="-156.607" y1="53.1446" x2="114.191" y2="53.1446" gradientUnits="userSpaceOnUse">
<stop offset="0.0101" stop-color="#F408AB"/>
<stop offset="1" stop-color="#27B7FF"/>
</linearGradient>
<linearGradient id="paint11_linear_32363_9" x1="-156.607" y1="51.5396" x2="114.19" y2="51.5396" gradientUnits="userSpaceOnUse">
<stop offset="0.0101" stop-color="#F408AB"/>
<stop offset="1" stop-color="#27B7FF"/>
</linearGradient>
</defs>
</svg>
