<svg width="58" height="57" viewBox="0 0 58 57" fill="none" xmlns="http://www.w3.org/2000/svg">
<path d="M24.3298 6.12639C25.4778 5.87633 26.6712 5.72857 27.876 5.66037V0C26.1597 0.0681975 24.4889 0.295507 22.8635 0.659227L24.3298 6.12639Z" fill="url(#paint0_linear_32363_10)"/>
<path d="M13.9753 11.4231C14.8618 10.6275 15.8052 9.9 16.8168 9.24076L13.9866 4.33057C12.5545 5.23987 11.2133 6.27419 9.97437 7.41081L13.9753 11.4231Z" fill="url(#paint1_linear_32363_10)"/>
<path d="M18.7946 8.09275C19.8516 7.54717 20.9541 7.0925 22.1021 6.72878L20.6359 1.25024C19.0105 1.76173 17.4533 2.40963 15.9644 3.1939L18.7946 8.09275Z" fill="url(#paint2_linear_32363_10)"/>
<path d="M10.1674 15.8898C10.8153 14.8896 11.5427 13.9348 12.3497 13.0483L8.34883 9.04736C7.21221 10.2863 6.17785 11.6275 5.26855 13.0596L10.1674 15.8898Z" fill="url(#paint3_linear_32363_10)"/>
<path d="M6.58713 26.9608C6.64396 25.7446 6.80309 24.5625 7.05315 23.4145L1.58598 21.9482C1.22227 23.5736 1.00632 25.2445 0.926758 26.9608H6.58713Z" fill="url(#paint4_linear_32363_10)"/>
<path d="M7.64403 21.1866C8.01912 20.0386 8.47378 18.9361 9.008 17.879L4.10915 15.0488C3.32487 16.5378 2.67701 18.095 2.16553 19.7203L7.64403 21.1866Z" fill="url(#paint5_linear_32363_10)"/>
<path opacity="0.43" d="M53.9389 15.0488L49.04 17.879C49.5856 18.9361 50.0403 20.0386 50.404 21.1866L55.8825 19.7203C55.371 18.095 54.7232 16.5264 53.9389 15.0488Z" fill="#406EB2"/>
<path opacity="0.43" d="M45.7097 13.0483C46.5054 13.9348 47.2328 14.8782 47.892 15.8898L52.8022 13.0596C51.8929 11.6275 50.8586 10.2863 49.722 9.04736L45.7097 13.0483Z" fill="#406EB2"/>
<path opacity="0.43" d="M35.9463 6.72878C37.0943 7.10387 38.1968 7.55853 39.2539 8.09275L42.0841 3.1939C40.5951 2.40963 39.0379 1.76173 37.4125 1.25024L35.9463 6.72878Z" fill="#406EB2"/>
<path opacity="0.43" d="M41.2429 9.24065C42.2431 9.88852 43.1979 10.616 44.0845 11.423L48.0854 7.42208C46.8465 6.28545 45.5053 5.2511 44.0731 4.3418L41.2429 9.24065Z" fill="#406EB2"/>
<path opacity="0.43" d="M30.1721 5.66037C31.3883 5.7172 32.5704 5.87633 33.7184 6.12639L35.1846 0.659227C33.5593 0.295507 31.8884 0.0795637 30.1721 0V5.66037Z" fill="#406EB2"/>
<path opacity="0.43" d="M7.05315 32.8029C6.80309 31.6549 6.65532 30.4614 6.58713 29.2566H0.926758C0.994955 30.9729 1.22227 32.6437 1.58598 34.2691L7.05315 32.8029Z" fill="#406EB2"/>
<path opacity="0.43" d="M9.008 38.3269C8.46242 37.2698 8.00775 36.1673 7.64403 35.0193L2.16553 36.4855C2.67701 38.1109 3.32487 39.6681 4.10915 41.1571L9.008 38.3269Z" fill="#406EB2"/>
<path opacity="0.43" d="M44.0845 44.783C43.1979 45.5786 42.2545 46.306 41.2429 46.9653L44.0731 51.8755C45.5053 50.9662 46.8465 49.9319 48.0854 48.7952L44.0845 44.783Z" fill="#406EB2"/>
<path opacity="0.43" d="M50.404 35.0308C50.0289 36.1788 49.5743 37.2813 49.04 38.3383L53.9389 41.1686C54.7232 39.6796 55.371 38.1224 55.8825 36.497L50.404 35.0308Z" fill="#406EB2"/>
<path opacity="0.43" d="M39.2539 48.1133C38.1968 48.6589 37.0943 49.1135 35.9463 49.4772L37.4125 54.9558C39.0379 54.4443 40.5951 53.7964 42.0841 53.0121L39.2539 48.1133Z" fill="#406EB2"/>
<path opacity="0.43" d="M51.0063 23.403C51.2564 24.551 51.4042 25.7445 51.4724 26.9493H57.1327C57.0645 25.233 56.8372 23.5621 56.4735 21.9368L51.0063 23.403Z" fill="#406EB2"/>
<path opacity="0.43" d="M51.4611 29.2566C51.4043 30.4728 51.2452 31.6549 50.9951 32.8029L56.4623 34.2691C56.826 32.6437 57.042 30.9729 57.1215 29.2566H51.4611Z" fill="#406EB2"/>
<path opacity="0.43" d="M47.8808 40.3274C47.2329 41.3276 46.5055 42.2824 45.6985 43.169L49.6994 47.1699C50.836 45.931 51.8704 44.5898 52.7797 43.1576L47.8808 40.3274Z" fill="#406EB2"/>
<path opacity="0.43" d="M16.8054 46.9653C15.8052 46.3174 14.8504 45.59 13.9638 44.783L9.96289 48.7839C11.2018 49.9205 12.543 50.9548 13.9752 51.8641L16.8054 46.9653Z" fill="#406EB2"/>
<path opacity="0.43" d="M12.3499 43.1575C11.5542 42.2709 10.8268 41.3275 10.1675 40.3159L5.25732 43.1461C6.16662 44.5782 7.20094 45.9195 8.33757 47.1584L12.3499 43.1575Z" fill="#406EB2"/>
<path opacity="0.43" d="M27.876 50.5456C26.6599 50.4888 25.4778 50.3296 24.3298 50.0796L22.8635 55.5468C24.4889 55.9105 26.1597 56.1264 27.876 56.206V50.5456Z" fill="#406EB2"/>
<path opacity="0.43" d="M22.1021 49.4884C20.9541 49.1134 19.8516 48.6587 18.7946 48.1245L15.9644 53.0234C17.4533 53.8076 19.0105 54.4555 20.6359 54.967L22.1021 49.4884Z" fill="#406EB2"/>
<path opacity="0.43" d="M33.7184 50.0796C32.5704 50.3296 31.3769 50.4774 30.1721 50.5456V56.206C31.8884 56.1378 33.5593 55.9105 35.1846 55.5468L33.7184 50.0796Z" fill="#406EB2"/>
<path d="M19.6903 35.9993H18.475V27.9432L16.038 28.8383V27.7407L19.5008 26.4405H19.6903V35.9993ZM23.787 31.2297L24.2704 26.4862H29.1446V27.6035H25.2962L25.0088 30.1973C25.4748 29.9229 26.0041 29.7857 26.5964 29.7857C27.4633 29.7857 28.1515 30.0732 28.6611 30.6482C29.1707 31.2188 29.4255 31.9919 29.4255 32.9676C29.4255 33.9477 29.1598 34.7208 28.6284 35.2871C28.1014 35.849 27.3631 36.1299 26.4135 36.1299C25.5728 36.1299 24.8868 35.8969 24.3554 35.4308C23.824 34.9648 23.5212 34.3201 23.4472 33.4969H24.5906C24.6646 34.0413 24.8585 34.453 25.1721 34.7317C25.4857 35.0061 25.8995 35.1434 26.4135 35.1434C26.9754 35.1434 27.4153 34.9517 27.7333 34.5684C28.0556 34.1851 28.2168 33.6558 28.2168 32.9807C28.2168 32.3447 28.0426 31.8351 27.6941 31.4518C27.35 31.0641 26.8905 30.8703 26.3155 30.8703C25.7884 30.8703 25.3746 30.9857 25.0741 31.2166L24.7539 31.4779L23.787 31.2297ZM30.6408 28.3156C30.6408 27.745 30.8216 27.2746 31.1831 26.9043C31.549 26.5341 32.0172 26.349 32.5879 26.349C33.1672 26.349 33.6354 26.5363 33.9926 26.9109C34.3541 27.2811 34.5349 27.7624 34.5349 28.3548V28.8187C34.5349 29.3937 34.352 29.8641 33.9861 30.23C33.6245 30.5915 33.1628 30.7723 32.6009 30.7723C32.0347 30.7723 31.5664 30.5915 31.1962 30.23C30.8259 29.8641 30.6408 29.3784 30.6408 28.773V28.3156ZM31.5425 28.8187C31.5425 29.1585 31.6383 29.4394 31.8299 29.6616C32.0216 29.8794 32.2786 29.9883 32.6009 29.9883C32.9102 29.9883 33.1585 29.8815 33.3458 29.6681C33.5374 29.4547 33.6332 29.1628 33.6332 28.7926V28.3156C33.6332 27.9759 33.5396 27.6949 33.3523 27.4728C33.165 27.2506 32.9102 27.1396 32.5879 27.1396C32.2655 27.1396 32.0107 27.2506 31.8234 27.4728C31.6361 27.6949 31.5425 27.9846 31.5425 28.3418V28.8187ZM35.2732 33.6667C35.2732 33.0961 35.454 32.6279 35.8155 32.262C36.1814 31.8917 36.6496 31.7066 37.2203 31.7066C37.7909 31.7066 38.2591 31.8896 38.625 32.2555C38.9909 32.6213 39.1738 33.107 39.1738 33.7125V34.1764C39.1738 34.747 38.9909 35.2174 38.625 35.5876C38.2635 35.9535 37.7996 36.1365 37.2333 36.1365C36.6671 36.1365 36.1988 35.9557 35.8286 35.5942C35.4583 35.2283 35.2732 34.7426 35.2732 34.1372V33.6667ZM36.1749 34.1764C36.1749 34.5205 36.2707 34.8036 36.4623 35.0257C36.654 35.2435 36.911 35.3524 37.2333 35.3524C37.5469 35.3524 37.7974 35.2457 37.9847 35.0323C38.172 34.8145 38.2656 34.5205 38.2656 34.1502V33.6667C38.2656 33.3226 38.1698 33.0417 37.9782 32.8239C37.7909 32.6061 37.5382 32.4972 37.2203 32.4972C36.911 32.4972 36.6584 32.6061 36.4623 32.8239C36.2707 33.0373 36.1749 33.327 36.1749 33.6929V34.1764ZM32.8753 35.2806L32.1893 34.8493L36.8348 27.414L37.5208 27.8452L32.8753 35.2806Z" fill="#F5F7F6"/>
<path d="M16.1614 21.8323V17.3477H17.4273C17.8175 17.3477 18.1624 17.4339 18.4622 17.6064C18.762 17.7789 18.993 18.0242 19.1553 18.3425C19.3195 18.6608 19.4027 19.0263 19.4047 19.439V19.7255C19.4047 20.1485 19.3226 20.5191 19.1583 20.8374C18.9961 21.1557 18.7631 21.4 18.4592 21.5705C18.1573 21.7409 17.8052 21.8282 17.4027 21.8323H16.1614ZM16.7528 17.8343V21.3487H17.375C17.8308 21.3487 18.185 21.207 18.4376 20.9236C18.6922 20.6403 18.8195 20.2368 18.8195 19.7132V19.4514C18.8195 18.9421 18.6994 18.5468 18.4592 18.2655C18.221 17.9822 17.8822 17.8384 17.4427 17.8343H16.7528ZM22.7097 20.6618H20.8308L20.4089 21.8323H19.799L21.5115 17.3477H22.029L23.7446 21.8323H23.1378L22.7097 20.6618ZM21.0095 20.1752H22.5341L21.7703 18.0776L21.0095 20.1752ZM27.0465 17.8343H25.605V21.8323H25.0167V17.8343H23.5783V17.3477H27.0465V17.8343ZM29.9418 20.6618H28.0629L27.6409 21.8323H27.0311L28.7436 17.3477H29.2611L30.9767 21.8323H30.3699L29.9418 20.6618ZM28.2415 20.1752H29.7662L29.0023 18.0776L28.2415 20.1752ZM35.8094 19.9195C35.8094 20.5869 35.6954 21.0828 35.4675 21.4072C35.2395 21.7317 34.8833 21.8939 34.3987 21.8939C33.9202 21.8939 33.566 21.7358 33.336 21.4195C33.1061 21.1013 32.987 20.6269 32.9787 19.9965V19.2358C32.9787 18.5766 33.0927 18.0869 33.3206 17.7665C33.5486 17.4462 33.9058 17.2861 34.3925 17.2861C34.8751 17.2861 35.2303 17.4411 35.4582 17.7511C35.6861 18.0592 35.8032 18.5355 35.8094 19.1803V19.9195ZM35.2395 19.1403C35.2395 18.6577 35.1718 18.3066 35.0362 18.0869C34.9007 17.8651 34.6861 17.7542 34.3925 17.7542C34.1009 17.7542 33.8884 17.8641 33.7549 18.0838C33.6215 18.3035 33.5527 18.6413 33.5486 19.0971V20.0089C33.5486 20.4935 33.6184 20.8518 33.758 21.0838C33.8997 21.3138 34.1132 21.4288 34.3987 21.4288C34.68 21.4288 34.8884 21.32 35.0239 21.1023C35.1615 20.8846 35.2334 20.5417 35.2395 20.0735V19.1403ZM38.412 21.8323H37.8391V18.0345L36.6903 18.4565V17.939L38.3227 17.3261H38.412V21.8323Z" fill="#F5F7F6"/>
<defs>
<linearGradient id="paint0_linear_32363_10" x1="-228.613" y1="3.06638" x2="42.1917" y2="3.06638" gradientUnits="userSpaceOnUse">
<stop offset="0.0101" stop-color="#F408AB"/>
<stop offset="1" stop-color="#27B7FF"/>
</linearGradient>
<linearGradient id="paint1_linear_32363_10" x1="-228.611" y1="7.88251" x2="42.1919" y2="7.88251" gradientUnits="userSpaceOnUse">
<stop offset="0.0101" stop-color="#F408AB"/>
<stop offset="1" stop-color="#27B7FF"/>
</linearGradient>
<linearGradient id="paint2_linear_32363_10" x1="-228.61" y1="4.67127" x2="42.1918" y2="4.67127" gradientUnits="userSpaceOnUse">
<stop offset="0.0101" stop-color="#F408AB"/>
<stop offset="1" stop-color="#27B7FF"/>
</linearGradient>
<linearGradient id="paint3_linear_32363_10" x1="-228.607" y1="12.4679" x2="42.1911" y2="12.4679" gradientUnits="userSpaceOnUse">
<stop offset="0.0101" stop-color="#F408AB"/>
<stop offset="1" stop-color="#27B7FF"/>
</linearGradient>
<linearGradient id="paint4_linear_32363_10" x1="-228.605" y1="24.4485" x2="42.191" y2="24.4485" gradientUnits="userSpaceOnUse">
<stop offset="0.0101" stop-color="#F408AB"/>
<stop offset="1" stop-color="#27B7FF"/>
</linearGradient>
<linearGradient id="paint5_linear_32363_10" x1="-228.608" y1="18.1166" x2="42.1914" y2="18.1166" gradientUnits="userSpaceOnUse">
<stop offset="0.0101" stop-color="#F408AB"/>
<stop offset="1" stop-color="#27B7FF"/>
</linearGradient>
</defs>
</svg>
