<svg width="57" height="57" viewBox="0 0 57 57" fill="none" xmlns="http://www.w3.org/2000/svg">
<path d="M23.403 6.12639C24.551 5.87633 25.7445 5.72857 26.9493 5.66037V0C25.233 0.0681975 23.5621 0.295507 21.9368 0.659227L23.403 6.12639Z" fill="url(#paint0_linear_32363_7)"/>
<path d="M13.0485 11.4231C13.9351 10.6275 14.8785 9.9 15.8901 9.24076L13.0599 4.33057C11.6277 5.23987 10.2865 6.27419 9.04761 7.41081L13.0485 11.4231Z" fill="url(#paint1_linear_32363_7)"/>
<path d="M17.879 8.09275C18.9361 7.54717 20.0386 7.0925 21.1866 6.72878L19.7204 1.25024C18.095 1.76173 16.5378 2.40963 15.0488 3.1939L17.879 8.09275Z" fill="url(#paint2_linear_32363_7)"/>
<path d="M9.24065 15.8898C9.88852 14.8896 10.6159 13.9348 11.4229 13.0483L7.42204 9.04736C6.28542 10.2863 5.2511 11.6275 4.3418 13.0596L9.24065 15.8898Z" fill="url(#paint3_linear_32363_7)"/>
<path d="M5.66039 26.9608C5.71722 25.7446 5.87635 24.5625 6.12641 23.4145L0.659244 21.9482C0.295525 23.5736 0.0795637 25.2445 0 26.9608H5.66039Z" fill="url(#paint4_linear_32363_7)"/>
<path d="M6.71731 21.1866C7.0924 20.0386 7.54706 18.9361 8.08127 17.879L3.18241 15.0488C2.39813 16.5378 1.75025 18.095 1.23877 19.7203L6.71731 21.1866Z" fill="url(#paint5_linear_32363_7)"/>
<path d="M53.0234 15.0488L48.1245 17.879C48.6701 18.9361 49.1248 20.0386 49.4885 21.1866L54.967 19.7203C54.4555 18.095 53.7963 16.5264 53.0234 15.0488Z" fill="url(#paint6_linear_32363_7)"/>
<path d="M44.783 13.0483C45.5786 13.9348 46.3061 14.8782 46.9653 15.8898L51.8755 13.0596C50.9662 11.6275 49.9319 10.2863 48.7952 9.04736L44.783 13.0483Z" fill="url(#paint7_linear_32363_7)"/>
<path opacity="0.43" d="M35.0195 6.72878C36.1675 7.10387 37.2701 7.55853 38.3271 8.09275L41.1573 3.1939C39.6683 2.40963 38.1112 1.76173 36.4858 1.25024L35.0195 6.72878Z" fill="#406EB2"/>
<path opacity="0.43" d="M40.3162 9.24065C41.3164 9.88852 42.2712 10.616 43.1577 11.423L47.1586 7.42208C45.9197 6.28545 44.5785 5.2511 43.1463 4.3418L40.3162 9.24065Z" fill="#406EB2"/>
<path opacity="0.43" d="M29.2566 5.66037C30.4728 5.7172 31.6549 5.87633 32.8029 6.12639L34.2691 0.659227C32.6437 0.295507 30.9729 0.0795637 29.2566 0V5.66037Z" fill="#406EB2"/>
<path d="M6.12641 32.8029C5.87635 31.6549 5.72858 30.4614 5.66039 29.2566H0C0.0681975 30.9729 0.295525 32.6437 0.659244 34.2691L6.12641 32.8029Z" fill="url(#paint8_linear_32363_7)"/>
<path d="M8.09271 38.3269C7.54713 37.2698 7.09249 36.1673 6.72877 35.0193L1.25024 36.4855C1.76173 38.1109 2.40959 39.6681 3.19386 41.1571L8.09271 38.3269Z" fill="url(#paint9_linear_32363_7)"/>
<path d="M43.1577 44.783C42.2712 45.5786 41.3278 46.306 40.3162 46.9653L43.1463 51.8755C44.5785 50.9662 45.9197 49.9319 47.1586 48.7952L43.1577 44.783Z" fill="url(#paint10_linear_32363_7)"/>
<path d="M49.4885 35.0308C49.1134 36.1788 48.6587 37.2813 48.1245 38.3383L53.0234 41.1686C53.8076 39.6796 54.4555 38.1224 54.967 36.497L49.4885 35.0308Z" fill="url(#paint11_linear_32363_7)"/>
<path d="M38.3271 48.1133C37.2701 48.6589 36.1675 49.1135 35.0195 49.4772L36.4858 54.9558C38.1112 54.4443 39.6683 53.7964 41.1573 53.0121L38.3271 48.1133Z" fill="url(#paint12_linear_32363_7)"/>
<path d="M50.0798 23.403C50.3299 24.551 50.4777 25.7445 50.5459 26.9493H56.2063C56.1381 25.233 55.9107 23.5621 55.547 21.9368L50.0798 23.403Z" fill="url(#paint13_linear_32363_7)"/>
<path d="M50.5459 29.2566C50.489 30.4728 50.3299 31.6549 50.0798 32.8029L55.547 34.2691C55.9107 32.6437 56.1267 30.9729 56.2063 29.2566H50.5459Z" fill="url(#paint14_linear_32363_7)"/>
<path d="M46.9653 40.3274C46.3174 41.3276 45.59 42.2824 44.783 43.169L48.7839 47.1699C49.9205 45.931 50.9548 44.5898 51.8641 43.1576L46.9653 40.3274Z" fill="url(#paint15_linear_32363_7)"/>
<path d="M15.8901 46.9653C14.8899 46.3174 13.9351 45.59 13.0485 44.783L9.04761 48.7839C10.2865 49.9205 11.6277 50.9548 13.0599 51.8641L15.8901 46.9653Z" fill="url(#paint16_linear_32363_7)"/>
<path d="M11.4231 43.1575C10.6275 42.2709 9.90004 41.3275 9.24079 40.3159L4.33057 43.1461C5.23987 44.5782 6.2742 45.9195 7.41083 47.1584L11.4231 43.1575Z" fill="url(#paint17_linear_32363_7)"/>
<path d="M26.9493 50.5456C25.7331 50.4888 24.551 50.3296 23.403 50.0796L21.9368 55.5468C23.5621 55.9105 25.233 56.1264 26.9493 56.206V50.5456Z" fill="url(#paint18_linear_32363_7)"/>
<path d="M21.1866 49.4884C20.0386 49.1134 18.9361 48.6587 17.879 48.1245L15.0488 53.0234C16.5378 53.8076 18.095 54.4555 19.7204 54.967L21.1866 49.4884Z" fill="url(#paint19_linear_32363_7)"/>
<path d="M32.8029 50.0796C31.6549 50.3296 30.4614 50.4774 29.2566 50.5456V56.206C30.9729 56.1378 32.6437 55.9105 34.2691 55.5468L32.8029 50.0796Z" fill="url(#paint20_linear_32363_7)"/>
<path d="M20.5025 28.969C20.5025 29.4438 20.3761 29.8663 20.1235 30.2365C19.8752 30.6068 19.5377 30.8964 19.1108 31.1055C19.6074 31.319 19.9994 31.6304 20.2869 32.0398C20.5787 32.4493 20.7246 32.9132 20.7246 33.4315C20.7246 34.2548 20.4458 34.9103 19.8883 35.3982C19.3351 35.886 18.6055 36.1299 17.6995 36.1299C16.7848 36.1299 16.0508 35.886 15.4976 35.3982C14.9488 34.906 14.6744 34.2504 14.6744 33.4315C14.6744 32.9175 14.8138 32.4536 15.0926 32.0398C15.3757 31.626 15.7655 31.3124 16.2621 31.099C15.8396 30.8899 15.5064 30.6002 15.2624 30.23C15.0185 29.8598 14.8965 29.4394 14.8965 28.969C14.8965 28.1675 15.1535 27.5316 15.6675 27.0612C16.1815 26.5907 16.8588 26.3555 17.6995 26.3555C18.5358 26.3555 19.211 26.5907 19.725 27.0612C20.2433 27.5316 20.5025 28.1675 20.5025 28.969ZM19.5159 33.4054C19.5159 32.874 19.346 32.4406 19.0062 32.1052C18.6709 31.7698 18.2309 31.6021 17.6864 31.6021C17.142 31.6021 16.7042 31.7676 16.3732 32.0986C16.0465 32.4297 15.8831 32.8653 15.8831 33.4054C15.8831 33.9455 16.0421 34.3702 16.3601 34.6795C16.6824 34.9887 17.1289 35.1434 17.6995 35.1434C18.2658 35.1434 18.7101 34.9887 19.0324 34.6795C19.3547 34.3658 19.5159 33.9412 19.5159 33.4054ZM17.6995 27.3486C17.2247 27.3486 16.8392 27.4967 16.543 27.7929C16.2512 28.0848 16.1053 28.4833 16.1053 28.9886C16.1053 29.4721 16.249 29.8641 16.5365 30.1647C16.8283 30.4609 17.216 30.609 17.6995 30.609C18.183 30.609 18.5685 30.4609 18.856 30.1647C19.1478 29.8641 19.2937 29.4721 19.2937 28.9886C19.2937 28.5051 19.1435 28.1109 18.8429 27.806C18.5424 27.5011 18.1612 27.3486 17.6995 27.3486ZM28.2122 31.9418C28.2122 33.3575 27.9705 34.4094 27.487 35.0976C27.0035 35.7858 26.2478 36.1299 25.2198 36.1299C24.2049 36.1299 23.4535 35.7945 22.9657 35.1238C22.4778 34.4486 22.2252 33.4424 22.2078 32.1052V30.4914C22.2078 29.0931 22.4495 28.0543 22.933 27.3748C23.4165 26.6953 24.1744 26.3555 25.2067 26.3555C26.2304 26.3555 26.9839 26.6844 27.4674 27.3421C27.9509 27.9955 28.1992 29.006 28.2122 30.3737V31.9418ZM27.0035 30.2888C27.0035 29.2652 26.8598 28.5204 26.5723 28.0543C26.2848 27.5839 25.8296 27.3486 25.2067 27.3486C24.5882 27.3486 24.1374 27.5817 23.8543 28.0477C23.5711 28.5138 23.4252 29.2303 23.4165 30.1973V32.1313C23.4165 33.1593 23.5646 33.9194 23.8608 34.4116C24.1613 34.8994 24.6143 35.1434 25.2198 35.1434C25.8165 35.1434 26.2587 34.9125 26.5461 34.4508C26.838 33.9891 26.9904 33.2616 27.0035 32.2685V30.2888ZM29.6562 28.3156C29.6562 27.745 29.837 27.2746 30.1985 26.9043C30.5644 26.5341 31.0326 26.349 31.6032 26.349C32.1826 26.349 32.6508 26.5363 33.008 26.9109C33.3695 27.2811 33.5503 27.7624 33.5503 28.3548V28.8187C33.5503 29.3937 33.3673 29.8641 33.0014 30.23C32.6399 30.5915 32.1782 30.7723 31.6163 30.7723C31.05 30.7723 30.5818 30.5915 30.2116 30.23C29.8413 29.8641 29.6562 29.3784 29.6562 28.773V28.3156ZM30.5578 28.8187C30.5578 29.1585 30.6537 29.4394 30.8453 29.6616C31.037 29.8794 31.294 29.9883 31.6163 29.9883C31.9256 29.9883 32.1738 29.8815 32.3611 29.6681C32.5528 29.4547 32.6486 29.1628 32.6486 28.7926V28.3156C32.6486 27.9759 32.555 27.6949 32.3677 27.4728C32.1804 27.2506 31.9256 27.1396 31.6032 27.1396C31.2809 27.1396 31.0261 27.2506 30.8388 27.4728C30.6515 27.6949 30.5578 27.9846 30.5578 28.3418V28.8187ZM34.2886 33.6667C34.2886 33.0961 34.4694 32.6279 34.8309 32.262C35.1968 31.8917 35.665 31.7066 36.2356 31.7066C36.8062 31.7066 37.2745 31.8896 37.6404 32.2555C38.0063 32.6213 38.1892 33.107 38.1892 33.7125V34.1764C38.1892 34.747 38.0063 35.2174 37.6404 35.5876C37.2788 35.9535 36.815 36.1365 36.2487 36.1365C35.6824 36.1365 35.2142 35.9557 34.844 35.5942C34.4737 35.2283 34.2886 34.7426 34.2886 34.1372V33.6667ZM35.1902 34.1764C35.1902 34.5205 35.2861 34.8036 35.4777 35.0257C35.6694 35.2435 35.9264 35.3524 36.2487 35.3524C36.5623 35.3524 36.8128 35.2457 37.0001 35.0323C37.1874 34.8145 37.281 34.5205 37.281 34.1502V33.6667C37.281 33.3226 37.1852 33.0417 36.9935 32.8239C36.8062 32.6061 36.5536 32.4972 36.2356 32.4972C35.9264 32.4972 35.6737 32.6061 35.4777 32.8239C35.2861 33.0373 35.1902 33.327 35.1902 33.6929V34.1764ZM31.8907 35.2806L31.2047 34.8493L35.8501 27.414L36.5362 27.8452L31.8907 35.2806Z" fill="#F5F7F6"/>
<path d="M15.1768 21.8323V17.3477H16.4427C16.8329 17.3477 17.1778 17.4339 17.4776 17.6064C17.7774 17.7789 18.0084 18.0242 18.1706 18.3425C18.3349 18.6608 18.4181 19.0263 18.4201 19.439V19.7255C18.4201 20.1485 18.338 20.5191 18.1737 20.8374C18.0115 21.1557 17.7784 21.4 17.4745 21.5705C17.1727 21.7409 16.8205 21.8282 16.4181 21.8323H15.1768ZM15.7682 17.8343V21.3487H16.3903C16.8462 21.3487 17.2004 21.207 17.453 20.9236C17.7076 20.6403 17.8349 20.2368 17.8349 19.7132V19.4514C17.8349 18.9421 17.7148 18.5468 17.4745 18.2655C17.2363 17.9822 16.8975 17.8384 16.4581 17.8343H15.7682ZM21.7251 20.6618H19.8462L19.4242 21.8323H18.8144L20.5269 17.3477H21.0444L22.76 21.8323H22.1532L21.7251 20.6618ZM20.0249 20.1752H21.5495L20.7856 18.0776L20.0249 20.1752ZM26.0619 17.8343H24.6204V21.8323H24.0321V17.8343H22.5937V17.3477H26.0619V17.8343ZM28.9571 20.6618H27.0783L26.6563 21.8323H26.0465L27.759 17.3477H28.2764L29.9921 21.8323H29.3853L28.9571 20.6618ZM27.2569 20.1752H28.7816L28.0177 18.0776L27.2569 20.1752ZM34.8247 19.9195C34.8247 20.5869 34.7108 21.0828 34.4828 21.4072C34.2549 21.7317 33.8986 21.8939 33.414 21.8939C32.9356 21.8939 32.5814 21.7358 32.3514 21.4195C32.1214 21.1013 32.0023 20.6269 31.9941 19.9965V19.2358C31.9941 18.5766 32.1081 18.0869 32.336 17.7665C32.5639 17.4462 32.9212 17.2861 33.4079 17.2861C33.8904 17.2861 34.2457 17.4411 34.4736 17.7511C34.7015 18.0592 34.8186 18.5355 34.8247 19.1803V19.9195ZM34.2549 19.1403C34.2549 18.6577 34.1872 18.3066 34.0516 18.0869C33.9161 17.8651 33.7015 17.7542 33.4079 17.7542C33.1163 17.7542 32.9038 17.8641 32.7703 18.0838C32.6368 18.3035 32.568 18.6413 32.5639 19.0971V20.0089C32.5639 20.4935 32.6338 20.8518 32.7734 21.0838C32.9151 21.3138 33.1286 21.4288 33.414 21.4288C33.6954 21.4288 33.9038 21.32 34.0393 21.1023C34.1769 20.8846 34.2488 20.5417 34.2549 20.0735V19.1403ZM37.4274 21.8323H36.8545V18.0345L35.7056 18.4565V17.939L37.3381 17.3261H37.4274V21.8323Z" fill="#F5F7F6"/>
<defs>
<linearGradient id="paint0_linear_32363_7" x1="-4.60924" y1="3.06638" x2="266.194" y2="3.06638" gradientUnits="userSpaceOnUse">
<stop offset="0.0101" stop-color="#F408AB"/>
<stop offset="1" stop-color="#27B7FF"/>
</linearGradient>
<linearGradient id="paint1_linear_32363_7" x1="-4.60899" y1="7.88252" x2="266.195" y2="7.88252" gradientUnits="userSpaceOnUse">
<stop offset="0.0101" stop-color="#F408AB"/>
<stop offset="1" stop-color="#27B7FF"/>
</linearGradient>
<linearGradient id="paint2_linear_32363_7" x1="-4.6093" y1="4.67127" x2="266.195" y2="4.67127" gradientUnits="userSpaceOnUse">
<stop offset="0.0101" stop-color="#F408AB"/>
<stop offset="1" stop-color="#27B7FF"/>
</linearGradient>
<linearGradient id="paint3_linear_32363_7" x1="-4.60887" y1="12.4679" x2="266.188" y2="12.4679" gradientUnits="userSpaceOnUse">
<stop offset="0.0101" stop-color="#F408AB"/>
<stop offset="1" stop-color="#27B7FF"/>
</linearGradient>
<linearGradient id="paint4_linear_32363_7" x1="-4.60901" y1="24.4485" x2="266.193" y2="24.4485" gradientUnits="userSpaceOnUse">
<stop offset="0.0101" stop-color="#F408AB"/>
<stop offset="1" stop-color="#27B7FF"/>
</linearGradient>
<linearGradient id="paint5_linear_32363_7" x1="-4.60907" y1="18.1166" x2="266.191" y2="18.1166" gradientUnits="userSpaceOnUse">
<stop offset="0.0101" stop-color="#F408AB"/>
<stop offset="1" stop-color="#27B7FF"/>
</linearGradient>
<linearGradient id="paint6_linear_32363_7" x1="50.001" y1="18.1166" x2="77.4211" y2="18.1166" gradientUnits="userSpaceOnUse">
<stop offset="0.0101" stop-color="#F408AB"/>
<stop offset="1" stop-color="#27B7FF"/>
</linearGradient>
<linearGradient id="paint7_linear_32363_7" x1="50.0011" y1="12.4679" x2="77.4214" y2="12.4679" gradientUnits="userSpaceOnUse">
<stop offset="0.0101" stop-color="#F408AB"/>
<stop offset="1" stop-color="#27B7FF"/>
</linearGradient>
<linearGradient id="paint8_linear_32363_7" x1="-4.60901" y1="31.7625" x2="266.193" y2="31.7625" gradientUnits="userSpaceOnUse">
<stop offset="0.0101" stop-color="#F408AB"/>
<stop offset="1" stop-color="#27B7FF"/>
</linearGradient>
<linearGradient id="paint9_linear_32363_7" x1="-4.60893" y1="38.0943" x2="266.19" y2="38.0943" gradientUnits="userSpaceOnUse">
<stop offset="0.0101" stop-color="#F408AB"/>
<stop offset="1" stop-color="#27B7FF"/>
</linearGradient>
<linearGradient id="paint10_linear_32363_7" x1="-4.6092" y1="48.3285" x2="266.193" y2="48.3285" gradientUnits="userSpaceOnUse">
<stop offset="0.0101" stop-color="#F408AB"/>
<stop offset="1" stop-color="#27B7FF"/>
</linearGradient>
<linearGradient id="paint11_linear_32363_7" x1="-4.60914" y1="38.0944" x2="266.192" y2="38.0944" gradientUnits="userSpaceOnUse">
<stop offset="0.0101" stop-color="#F408AB"/>
<stop offset="1" stop-color="#27B7FF"/>
</linearGradient>
<linearGradient id="paint12_linear_32363_7" x1="-4.60908" y1="51.5397" x2="266.193" y2="51.5397" gradientUnits="userSpaceOnUse">
<stop offset="0.0101" stop-color="#F408AB"/>
<stop offset="1" stop-color="#27B7FF"/>
</linearGradient>
<linearGradient id="paint13_linear_32363_7" x1="50.0013" y1="24.4484" x2="77.4215" y2="24.4484" gradientUnits="userSpaceOnUse">
<stop offset="0.0101" stop-color="#F408AB"/>
<stop offset="1" stop-color="#27B7FF"/>
</linearGradient>
<linearGradient id="paint14_linear_32363_7" x1="-4.60925" y1="31.7625" x2="266.194" y2="31.7625" gradientUnits="userSpaceOnUse">
<stop offset="0.0101" stop-color="#F408AB"/>
<stop offset="1" stop-color="#27B7FF"/>
</linearGradient>
<linearGradient id="paint15_linear_32363_7" x1="-4.60939" y1="43.7431" x2="266.193" y2="43.7431" gradientUnits="userSpaceOnUse">
<stop offset="0.0101" stop-color="#F408AB"/>
<stop offset="1" stop-color="#27B7FF"/>
</linearGradient>
<linearGradient id="paint16_linear_32363_7" x1="-4.60899" y1="48.3285" x2="266.195" y2="48.3285" gradientUnits="userSpaceOnUse">
<stop offset="0.0101" stop-color="#F408AB"/>
<stop offset="1" stop-color="#27B7FF"/>
</linearGradient>
<linearGradient id="paint17_linear_32363_7" x1="-4.60875" y1="43.7429" x2="266.188" y2="43.7429" gradientUnits="userSpaceOnUse">
<stop offset="0.0101" stop-color="#F408AB"/>
<stop offset="1" stop-color="#27B7FF"/>
</linearGradient>
<linearGradient id="paint18_linear_32363_7" x1="-4.60924" y1="53.1446" x2="266.194" y2="53.1446" gradientUnits="userSpaceOnUse">
<stop offset="0.0101" stop-color="#F408AB"/>
<stop offset="1" stop-color="#27B7FF"/>
</linearGradient>
<linearGradient id="paint19_linear_32363_7" x1="-4.6093" y1="51.5396" x2="266.195" y2="51.5396" gradientUnits="userSpaceOnUse">
<stop offset="0.0101" stop-color="#F408AB"/>
<stop offset="1" stop-color="#27B7FF"/>
</linearGradient>
<linearGradient id="paint20_linear_32363_7" x1="-4.6094" y1="53.1446" x2="266.194" y2="53.1446" gradientUnits="userSpaceOnUse">
<stop offset="0.0101" stop-color="#F408AB"/>
<stop offset="1" stop-color="#27B7FF"/>
</linearGradient>
</defs>
</svg>
