<svg width="137" height="33" viewBox="0 0 137 33" fill="none" xmlns="http://www.w3.org/2000/svg">
<path d="M20.8526 16.0484C20.8116 12.5197 23.9276 10.8003 24.0779 10.7233C22.3149 8.31099 19.5816 7.97737 18.6249 7.95171C16.3289 7.72074 14.1012 9.23485 12.9396 9.23485C11.7506 9.23485 9.94656 7.96454 8.00589 8.00303C5.50488 8.04153 3.16787 9.40166 1.89687 11.506C-0.740804 15.8046 1.2272 22.1176 3.75554 25.595C5.02655 27.3015 6.50255 29.2006 8.44322 29.1236C10.3429 29.0466 11.0536 27.9944 13.3359 27.9944C15.6046 27.9944 16.2606 29.1236 18.2423 29.0851C20.2786 29.0595 21.5633 27.3785 22.7796 25.6591C24.2419 23.7087 24.8296 21.784 24.8569 21.6942C24.7886 21.6814 20.8936 20.2827 20.8526 16.0484Z" fill="white"/>
<path d="M17.1219 5.66766C18.1469 4.47433 18.8439 2.84472 18.6389 1.18945C17.1629 1.25361 15.3179 2.15182 14.2519 3.31949C13.3089 4.34601 12.4752 6.03978 12.6939 7.63089C14.3476 7.74637 16.0559 6.84817 17.1219 5.66766Z" fill="white"/>
<path d="M44.8101 24.825H38.3458L36.7878 29.1364H34.0544L40.1771 13.1997H43.0197L49.1424 29.1364H46.3544L44.8101 24.825ZM39.0154 22.8361H44.1404L41.6121 15.843H41.5437L39.0154 22.8361Z" fill="white"/>
<path d="M62.3853 23.3241C62.3853 26.9298 60.3216 29.2523 57.2194 29.2523C55.4564 29.2523 54.0624 28.5081 53.3244 27.2249H53.2697V32.9734H50.7278V17.5115H53.1877V19.449H53.2287C53.9394 18.2044 55.4427 17.396 57.1647 17.396C60.3216 17.396 62.3853 19.7185 62.3853 23.3241ZM59.775 23.3241C59.775 20.976 58.4767 19.4234 56.5087 19.4234C54.5681 19.4234 53.2561 21.0016 53.2561 23.3241C53.2561 25.6595 54.5681 27.2377 56.5087 27.2377C58.4767 27.2377 59.775 25.698 59.775 23.3241Z" fill="white"/>
<path d="M75.9978 23.3241C75.9978 26.9298 73.9341 29.2523 70.8318 29.2523C69.0688 29.2523 67.6748 28.5081 66.9368 27.2249H66.8821V32.9734H64.3538V17.5115H66.8138V19.449H66.8548C67.5654 18.2044 69.0688 17.396 70.7908 17.396C73.9341 17.396 75.9978 19.7185 75.9978 23.3241ZM73.3874 23.3241C73.3874 20.976 72.0891 19.4234 70.1211 19.4234C68.1804 19.4234 66.8684 21.0016 66.8684 23.3241C66.8684 25.6595 68.1804 27.2377 70.1211 27.2377C72.1028 27.2377 73.3874 25.698 73.3874 23.3241Z" fill="white"/>
<path d="M85.0041 24.6966C85.1955 26.2749 86.8218 27.3143 89.0631 27.3143C91.2088 27.3143 92.7395 26.2749 92.7395 24.8506C92.7395 23.6188 91.8101 22.8746 89.6098 22.3613L87.4095 21.8609C84.2935 21.1552 82.8448 19.7822 82.8448 17.5623C82.8448 14.8164 85.4005 12.9302 89.0221 12.9302C92.6028 12.9302 95.0628 14.8164 95.1448 17.5623H92.5755C92.4251 15.9712 91.0175 15.0089 88.9811 15.0089C86.9448 15.0089 85.5371 15.9841 85.5371 17.3955C85.5371 18.5247 86.4255 19.1791 88.6121 19.6924L90.4845 20.1286C93.9695 20.8985 95.4181 22.2202 95.4181 24.5427C95.4181 27.5196 92.8898 29.393 88.8718 29.393C85.1135 29.393 82.5715 27.5709 82.4075 24.6838H85.0041V24.6966Z" fill="white"/>
<path d="M100.911 14.7646V17.5106H103.261V19.3968H100.911V25.7997C100.911 26.8006 101.376 27.2625 102.414 27.2625C102.674 27.2625 103.084 27.224 103.248 27.2112V29.0846C102.961 29.1487 102.4 29.2 101.84 29.2C99.3392 29.2 98.3552 28.3147 98.3552 26.0692V19.4096H96.5513V17.5234H98.3552V14.7646H100.911Z" fill="white"/>
<path d="M104.615 23.3234C104.615 19.6665 106.911 17.3696 110.478 17.3696C114.059 17.3696 116.341 19.6665 116.341 23.3234C116.341 26.9932 114.073 29.2772 110.478 29.2772C106.898 29.2772 104.615 26.9932 104.615 23.3234ZM113.772 23.3234C113.772 20.8213 112.542 19.3328 110.492 19.3328C108.442 19.3328 107.212 20.8213 107.212 23.3234C107.212 25.8384 108.428 27.314 110.492 27.314C112.556 27.314 113.772 25.8384 113.772 23.3234Z" fill="white"/>
<path d="M118.459 17.5111H120.878V19.4872H120.933C121.316 18.1784 122.45 17.3828 123.912 17.3828C124.281 17.3828 124.582 17.4341 124.787 17.4726V19.7053C124.582 19.6283 124.145 19.5642 123.653 19.5642C122.013 19.5642 121.001 20.6035 121.001 22.2331V29.1236H118.459V17.5111Z" fill="white"/>
<path d="M136.485 25.7229C136.143 27.8272 133.957 29.2772 131.155 29.2772C127.561 29.2772 125.319 27.0189 125.319 23.3747C125.319 19.7306 127.561 17.3696 131.046 17.3696C134.462 17.3696 136.622 19.5766 136.622 23.1053V23.9265H127.889V24.0676C127.889 26.0565 129.214 27.3525 131.223 27.3525C132.631 27.3525 133.738 26.7237 134.08 25.7229H136.485ZM127.902 22.2456H134.093C134.039 20.462 132.822 19.2943 131.059 19.2943C129.31 19.3072 128.039 20.5005 127.902 22.2456Z" fill="white"/>
<path d="M38.7008 1.20215C41.1199 1.20215 42.5412 2.60078 42.5412 5.00027C42.5412 7.45109 41.1335 8.84973 38.7008 8.84973H35.7488V1.20215H38.7008ZM37.0198 7.77188H38.5505C40.2588 7.77188 41.2429 6.77102 41.2429 5.01311C41.2429 3.28085 40.2452 2.28 38.5505 2.28H37.0198V7.77188Z" fill="white"/>
<path d="M43.9626 5.96304C43.9626 4.10246 45.0696 2.96045 46.86 2.96045C48.6503 2.96045 49.7573 4.08963 49.7573 5.96304C49.7573 7.83646 48.6503 8.96564 46.86 8.96564C45.0696 8.96564 43.9626 7.83646 43.9626 5.96304ZM48.5137 5.96304C48.5137 4.70555 47.9123 3.97415 46.86 3.97415C45.8076 3.97415 45.2063 4.70555 45.2063 5.96304C45.2063 7.22054 45.794 7.95194 46.86 7.95194C47.926 7.95194 48.5137 7.22054 48.5137 5.96304Z" fill="white"/>
<path d="M57.4788 8.86254H56.2214L54.9505 4.60249H54.8548L53.5838 8.86254H52.3402L50.6455 3.08838H51.8755L52.9825 7.5024H53.0781L54.3491 3.08838H55.5108L56.7818 7.5024H56.8774L57.9708 3.08838H59.1871L57.4788 8.86254Z" fill="white"/>
<path d="M60.5952 3.0758H61.7706V3.99967H61.8662C62.1669 3.35809 62.7819 2.97314 63.6976 2.97314C65.0643 2.97314 65.8296 3.74304 65.8296 5.11601V8.86282H64.6133V5.41114C64.6133 4.48727 64.1896 4.02533 63.2876 4.02533C62.3856 4.02533 61.8116 4.58992 61.8116 5.48813V8.86282H60.5952V3.0758Z" fill="white"/>
<path d="M67.7563 0.830078H68.9728V8.86258H67.7563V0.830078Z" fill="white"/>
<path d="M70.668 5.96304C70.668 4.10246 71.7749 2.96045 73.5652 2.96045C75.3555 2.96045 76.4625 4.08963 76.4625 5.96304C76.4625 7.83646 75.3555 8.96564 73.5652 8.96564C71.7613 8.96564 70.668 7.83646 70.668 5.96304ZM75.2189 5.96304C75.2189 4.70555 74.6175 3.97415 73.5652 3.97415C72.5129 3.97415 71.9116 4.70555 71.9116 5.96304C71.9116 7.22054 72.4993 7.95194 73.5652 7.95194C74.6175 7.95194 75.2189 7.22054 75.2189 5.96304Z" fill="white"/>
<path d="M77.7468 7.2204C77.7468 6.18104 78.5668 5.57796 80.0291 5.50097L81.6965 5.41115V4.91071C81.6965 4.2948 81.2728 3.96118 80.4391 3.96118C79.7558 3.96118 79.2911 4.19215 79.1545 4.60276H77.9792C78.1022 3.61472 79.0998 2.97314 80.4938 2.97314C82.0381 2.97314 82.9128 3.69171 82.9128 4.91071V8.86284H81.7375V8.05445H81.6418C81.2728 8.63187 80.6031 8.96549 79.7968 8.96549C78.6078 8.95266 77.7468 8.28542 77.7468 7.2204ZM81.7101 6.7328V6.2452L80.2068 6.33502C79.3595 6.38634 78.9768 6.65581 78.9768 7.16907C78.9768 7.69517 79.4551 7.99029 80.1111 7.99029C81.0268 7.99029 81.7101 7.45137 81.7101 6.7328Z" fill="white"/>
<path d="M84.5112 5.96268C84.5112 4.14061 85.5089 2.98577 87.0669 2.98577C87.9142 2.98577 88.6249 3.35789 88.9529 3.99946H89.0485V0.830078H90.2649V8.86261H89.0895V7.95157H88.9939C88.6249 8.58031 87.9142 8.96526 87.0669 8.96526C85.4952 8.95243 84.5112 7.79759 84.5112 5.96268ZM85.7686 5.96268C85.7686 7.19451 86.3836 7.92591 87.4086 7.92591C88.4335 7.92591 89.0622 7.18168 89.0622 5.96268C89.0622 4.75652 88.4199 3.99946 87.4086 3.99946C86.3836 4.01229 85.7686 4.75652 85.7686 5.96268Z" fill="white"/>
<path d="M95.2805 5.96304C95.2805 4.10246 96.3875 2.96045 98.1779 2.96045C99.9682 2.96045 101.075 4.08963 101.075 5.96304C101.075 7.83646 99.9682 8.96564 98.1779 8.96564C96.3875 8.96564 95.2805 7.83646 95.2805 5.96304ZM99.8315 5.96304C99.8315 4.70555 99.2302 3.97415 98.1779 3.97415C97.1255 3.97415 96.5242 4.70555 96.5242 5.96304C96.5242 7.22054 97.1118 7.95194 98.1779 7.95194C99.2302 7.95194 99.8315 7.22054 99.8315 5.96304Z" fill="white"/>
<path d="M102.716 3.0758H103.891V3.99967H103.987C104.287 3.35809 104.902 2.97314 105.818 2.97314C107.185 2.97314 107.95 3.74304 107.95 5.11601V8.86282H106.734V5.41114C106.734 4.48727 106.31 4.02533 105.408 4.02533C104.506 4.02533 103.932 4.58992 103.932 5.48813V8.86282H102.716V3.0758Z" fill="white"/>
<path d="M114.81 1.63818V3.10096H116.149V4.06332H114.81V7.0402C114.81 7.64328 115.07 7.91274 115.685 7.91274C115.876 7.91274 115.972 7.89991 116.149 7.88707V8.8366C115.958 8.86226 115.726 8.90076 115.493 8.90076C114.14 8.90076 113.607 8.45166 113.607 7.33533V4.07615H112.637V3.1138H113.607V1.63818H114.81Z" fill="white"/>
<path d="M117.79 0.830078H118.992V4.01229H119.088C119.389 3.37071 120.031 2.97294 120.96 2.97294C122.272 2.97294 123.079 3.75566 123.079 5.12862V8.86258H121.862V5.41092C121.862 4.48705 121.411 4.02512 120.55 4.02512C119.553 4.02512 119.006 4.61536 119.006 5.48791V8.86258H117.79V0.830078Z" fill="white"/>
<path d="M130.171 7.29739C129.898 8.33675 128.914 8.96549 127.506 8.96549C125.743 8.96549 124.664 7.83631 124.664 5.98857C124.664 4.14082 125.771 2.97314 127.506 2.97314C129.215 2.97314 130.253 4.07666 130.253 5.88591V6.28369H125.907V6.34785C125.948 7.36155 126.577 8.00312 127.547 8.00312C128.285 8.00312 128.791 7.75932 129.01 7.29739H130.171ZM125.907 5.43681H129.01C128.982 4.52577 128.395 3.93551 127.493 3.93551C126.591 3.93551 125.976 4.5386 125.907 5.43681Z" fill="white"/>
</svg>
